<svg width="72" height="72" viewBox="0 0 72 72" fill="none" xmlns="http://www.w3.org/2000/svg">
<mask id="mask0_580_20618" style="mask-type:luminance" maskUnits="userSpaceOnUse" x="7" y="8" width="58" height="58">
<path d="M35.7898 63.5704H35.8398L35.7898 65.5804C35.5598 65.5804 35.3398 65.5804 35.1098 65.5804L35.1598 63.5704C35.3698 63.5704 35.5798 63.5704 35.7898 63.5704ZM38.6498 65.4504C38.4098 65.4704 38.1698 65.4904 37.9198 65.5104L37.7798 63.5004C38.0098 63.4804 38.2298 63.4604 38.4598 63.4404L38.6598 65.4504H38.6498ZM33.2198 63.4504L33.0198 65.4504C32.7798 65.4304 32.5398 65.4004 32.2998 65.3704L32.5398 63.3704C32.7698 63.4004 32.9898 63.4204 33.2198 63.4404M41.4398 65.0304C41.1998 65.0804 40.9598 65.1204 40.7198 65.1604L40.3798 63.1704C40.5998 63.1304 40.8198 63.0904 41.0398 63.0504L41.4398 65.0304ZM30.6298 63.0804L30.2398 65.0604C29.9998 65.0104 29.7598 64.9604 29.5198 64.9104L29.9598 62.9504C30.1798 63.0004 30.3998 63.0504 30.6198 63.0904M44.1698 64.3504C43.9398 64.4204 43.6998 64.4904 43.4698 64.5504L42.9298 62.6104C43.1498 62.5504 43.3698 62.4904 43.5898 62.4204L44.1698 64.3504ZM28.0898 62.4504L27.5098 64.3804C27.2798 64.3104 27.0398 64.2404 26.8098 64.1604L27.4398 62.2504C27.6598 62.3204 27.8698 62.3904 28.0898 62.4604M46.8098 63.4004C46.5898 63.4904 46.3598 63.5804 46.1398 63.6704L45.4098 61.7904C45.6198 61.7104 45.8298 61.6204 46.0398 61.5404L46.8098 63.4004ZM25.6198 61.5704L24.8498 63.4304C24.6198 63.3404 24.3998 63.2404 24.1698 63.1404L24.9898 61.3004C25.1998 61.3904 25.4098 61.4804 25.6198 61.5704ZM49.3598 62.1904C49.1498 62.3004 48.9298 62.4204 48.7098 62.5304L47.8098 60.7304C48.0098 60.6304 48.2098 60.5304 48.4098 60.4204L49.3598 62.2004V62.1904ZM23.2498 60.4504L22.2998 62.2304C22.0798 62.1104 21.8698 62.0004 21.6598 61.8804L22.6498 60.1304C22.8498 60.2404 23.0498 60.3504 23.2498 60.4604M51.7698 60.7404C51.5698 60.8804 51.3598 61.0104 51.1598 61.1404L50.0798 59.4404C50.2698 59.3204 50.4598 59.2004 50.6498 59.0704L51.7698 60.7404ZM20.9998 59.1104L19.8798 60.7804C19.6798 60.6404 19.4798 60.5104 19.2798 60.3704L20.4398 58.7204C20.6198 58.8504 20.8098 58.9804 20.9998 59.1004M54.0298 59.0604C53.8398 59.2204 53.6498 59.3704 53.4598 59.5204L52.2198 57.9304C52.3998 57.7904 52.5698 57.6504 52.7498 57.5104L54.0298 59.0604ZM18.8898 57.5504L17.6198 59.1104C17.4298 58.9604 17.2398 58.8004 17.0598 58.6404L18.3798 57.1104C18.5498 57.2604 18.7198 57.4004 18.8998 57.5504M56.1098 57.1704C55.9398 57.3404 55.7598 57.5104 55.5898 57.6804L54.1998 56.2204C54.3598 56.0604 54.5298 55.9004 54.6898 55.7404L56.1098 57.1604V57.1704ZM16.9498 55.7904L15.5298 57.2104C15.3598 57.0404 15.1898 56.8704 15.0198 56.6904L16.4698 55.2904C16.6298 55.4504 16.7898 55.6204 16.9498 55.7804M57.9998 55.0804C57.8498 55.2704 57.6898 55.4604 57.5298 55.6404L56.0098 54.3204C56.1598 54.1504 56.2998 53.9804 56.4398 53.8004L57.9998 55.0804ZM15.1798 53.8504L13.6298 55.1304C13.4698 54.9404 13.3198 54.7504 13.1698 54.5604L14.7498 53.3204C14.8898 53.5004 15.0298 53.6704 15.1798 53.8504ZM59.6798 52.8204C59.5398 53.0204 59.4098 53.2204 59.2698 53.4204L57.6198 52.2604C57.7498 52.0704 57.8798 51.8904 58.0098 51.7004L59.6798 52.8204ZM13.6198 51.7604L11.9498 52.8804C11.8098 52.6804 11.6798 52.4804 11.5498 52.2704L13.2498 51.1804C13.3698 51.3704 13.4998 51.5604 13.6198 51.7504M61.1298 50.4004C61.0198 50.6204 60.8998 50.8304 60.7798 51.0404L59.0298 50.0404C59.1398 49.8504 59.2498 49.6504 59.3598 49.4504L61.1298 50.4004ZM12.2598 49.5204L10.4898 50.4704C10.3798 50.2604 10.2598 50.0404 10.1498 49.8204L11.9498 48.9104C12.0498 49.1104 12.1598 49.3104 12.2598 49.5104M62.3398 47.8504C62.2498 48.0804 62.1498 48.3004 62.0498 48.5204L60.2098 47.7004C60.2998 47.4904 60.3898 47.2804 60.4798 47.0704L62.3398 47.8404V47.8504ZM11.1398 47.1604L9.27977 47.9404C9.18977 47.7204 9.09977 47.4904 9.00977 47.2604L10.8898 46.5304C10.9698 46.7404 11.0598 46.9504 11.1398 47.1604ZM63.2898 45.1904C63.2198 45.4304 63.1498 45.6604 63.0698 45.8904L61.1598 45.2604C61.2298 45.0504 61.2998 44.8304 61.3698 44.6104L63.2998 45.1904H63.2898ZM10.2498 44.7004L8.31977 45.2904C8.24977 45.0604 8.17977 44.8204 8.11977 44.5904L10.0598 44.0504C10.1198 44.2704 10.1798 44.4804 10.2498 44.7004ZM63.9698 42.4604C63.9198 42.7004 63.8698 42.9404 63.8198 43.1704L61.8498 42.7304C61.8998 42.5104 61.9498 42.2904 61.9898 42.0604L63.9698 42.4504V42.4604ZM9.60976 42.1604L7.62976 42.5604C7.57977 42.3204 7.53976 42.0804 7.49976 41.8404L9.47977 41.4904C9.51977 41.7104 9.55976 41.9404 9.60976 42.1604ZM64.3798 39.6804C64.3598 39.9204 64.3298 40.1604 64.2998 40.4104L62.2998 40.1604C62.3298 39.9404 62.3498 39.7104 62.3698 39.4904L64.3698 39.6804H64.3798ZM9.21976 39.5704L7.21976 39.7704C7.19976 39.5304 7.17977 39.2804 7.15977 39.0404L9.16977 38.8904C9.18977 39.1204 9.19977 39.3404 9.22977 39.5604M64.5098 36.8704C64.5098 37.1104 64.5098 37.3604 64.5098 37.6004L62.4998 37.5504C62.4998 37.3204 62.4998 37.1004 62.4998 36.8704V36.6904L64.5098 36.6704V36.8704ZM9.08976 36.2804C9.08976 36.4804 9.08976 36.6704 9.08976 36.8504V36.9604L7.06977 36.8704C7.06977 36.6604 7.06977 36.4504 7.06977 36.2404L9.07977 36.2804H9.08976ZM64.4298 34.5904L62.4198 34.7504C62.3998 34.5204 62.3798 34.3004 62.3598 34.0704L64.3598 33.8604C64.3798 34.1004 64.4098 34.3404 64.4298 34.5904ZM9.27977 33.6604C9.24977 33.8804 9.22977 34.1104 9.20977 34.3404L7.19976 34.1504C7.21976 33.9104 7.24977 33.6604 7.27977 33.4304L9.27977 33.6704V33.6604ZM64.0698 31.7904L62.0898 32.1404C62.0498 31.9204 62.0098 31.6904 61.9598 31.4704L63.9298 31.0604C63.9798 31.3004 64.0198 31.5404 64.0698 31.7804M9.70977 31.0804C9.65977 31.3004 9.60977 31.5204 9.56977 31.7404L7.58976 31.3604C7.63976 31.1204 7.68977 30.8804 7.73977 30.6404L9.70977 31.0804ZM63.4398 29.0504L61.4998 29.6004C61.4398 29.3804 61.3698 29.1704 61.3098 28.9504L63.2298 28.3504C63.2998 28.5804 63.3698 28.8104 63.4398 29.0504ZM10.3998 28.5604C10.3298 28.7704 10.2598 28.9904 10.1998 29.2104L8.26976 28.6304C8.33976 28.4004 8.40976 28.1604 8.48977 27.9304L10.3998 28.5504V28.5604ZM62.5398 26.3804L60.6598 27.1204C60.5798 26.9104 60.4898 26.7004 60.3998 26.4904L62.2498 25.7104C62.3398 25.9304 62.4398 26.1604 62.5298 26.3804M11.3398 26.1004C11.2498 26.3104 11.1598 26.5204 11.0698 26.7304L9.20977 25.9704C9.29977 25.7504 9.39977 25.5204 9.49976 25.3004L11.3498 26.1104L11.3398 26.1004ZM61.3898 23.8204L59.5998 24.7404C59.4998 24.5404 59.3898 24.3404 59.2798 24.1404L61.0498 23.1804C61.1698 23.3904 61.2798 23.6104 61.3898 23.8304M12.5098 23.7704C12.3998 23.9704 12.2898 24.1604 12.1798 24.3704L10.3998 23.4304C10.5098 23.2104 10.6298 23.0004 10.7498 22.7904L12.4998 23.7804L12.5098 23.7704ZM59.9898 21.3804L58.2898 22.4704C58.1698 22.2804 58.0498 22.0904 57.9198 21.9104L59.5798 20.7804C59.7198 20.9804 59.8498 21.1904 59.9898 21.3904M13.9098 21.5504C13.7798 21.7404 13.6498 21.9204 13.5198 22.1204L11.8398 21.0004C11.9798 20.8004 12.1098 20.6004 12.2498 20.4004L13.8998 21.5504H13.9098ZM58.3498 19.0904L56.7698 20.3404C56.6298 20.1604 56.4898 19.9904 56.3398 19.8104L57.8898 18.5304C58.0498 18.7204 58.1998 18.9004 58.3498 19.1004M15.5198 19.4804C15.3698 19.6504 15.2298 19.8304 15.0798 20.0004L13.5198 18.7304C13.6698 18.5404 13.8298 18.3604 13.9898 18.1704L15.5198 19.4804ZM56.4998 16.9604L55.0498 18.3604C54.8898 18.2004 54.7298 18.0304 54.5698 17.8704L55.9898 16.4404C56.1598 16.6104 56.3298 16.7804 56.4998 16.9604ZM17.3198 17.5704C17.1598 17.7304 16.9898 17.8904 16.8398 18.0504L15.4098 16.6304C15.5798 16.4604 15.7498 16.2904 15.9298 16.1204L17.3298 17.5704H17.3198ZM54.4498 15.0304L53.1398 16.5604C52.9698 16.4104 52.7898 16.2704 52.6198 16.1204L53.8898 14.5604C54.0798 14.7104 54.2698 14.8704 54.4498 15.0304ZM19.2998 15.8604C19.1198 16.0004 18.9498 16.1404 18.7698 16.2904L17.4898 14.7404C17.6798 14.5904 17.8698 14.4304 18.0598 14.2804L19.2998 15.8604ZM52.2298 13.3104L51.0798 14.9604C50.8998 14.8304 50.7098 14.7004 50.5198 14.5804L51.6298 12.9004C51.8298 13.0304 52.0298 13.1704 52.2298 13.3104ZM21.4298 14.3404C21.2398 14.4604 21.0498 14.5904 20.8598 14.7104L19.7298 13.0404C19.9298 12.9004 20.1298 12.7704 20.3398 12.6404L21.4298 14.3404ZM49.8398 11.8104L48.8498 13.5704C48.6498 13.4604 48.4498 13.3504 48.2498 13.2404L49.1898 11.4604C49.4098 11.5704 49.6198 11.6904 49.8298 11.8104M23.6998 13.0504C23.4998 13.1504 23.2998 13.2604 23.0998 13.3604L22.1398 11.5904C22.3498 11.4704 22.5698 11.3604 22.7798 11.2504L23.6898 13.0504H23.6998ZM47.3198 10.5504L46.5098 12.4004C46.2998 12.3104 46.0898 12.2204 45.8798 12.1304L46.6398 10.2704C46.8698 10.3604 47.0898 10.4604 47.3098 10.5504M26.0898 11.9804C25.8798 12.0604 25.6698 12.1504 25.4598 12.2304L24.6798 10.3704C24.8998 10.2804 25.1298 10.1904 25.3498 10.1004L26.0898 11.9704V11.9804ZM44.6798 9.55039L44.0498 11.4604C43.8398 11.3904 43.6198 11.3204 43.3998 11.2604L43.9698 9.33039C44.1998 9.40039 44.4398 9.47039 44.6698 9.55039M28.5698 11.1404C28.3498 11.2104 28.1298 11.2704 27.9098 11.3404L27.3198 9.41039C27.5498 9.34039 27.7798 9.27039 28.0198 9.20039L28.5698 11.1304V11.1404ZM41.9698 8.81039L41.5298 10.7704C41.3098 10.7204 41.0898 10.6804 40.8698 10.6304L41.2498 8.65039C41.4898 8.70039 41.7298 8.75039 41.9698 8.80039M31.1198 10.5704C30.8998 10.6104 30.6698 10.6504 30.4498 10.7004L30.0498 8.73039C30.2898 8.68039 30.5298 8.64039 30.7698 8.59039L31.1198 10.5704ZM39.1798 8.34039L38.9398 10.3404C38.7098 10.3104 38.4898 10.2904 38.2598 10.2704L38.4398 8.26039C38.6798 8.28039 38.9298 8.31039 39.1698 8.34039M33.7198 10.2404C33.4898 10.2604 33.2598 10.2804 33.0398 10.3004L32.8398 8.30039C33.0798 8.27039 33.3198 8.25039 33.5598 8.23039L33.7198 10.2404ZM35.7898 8.15039C35.9898 8.15039 36.1798 8.15039 36.3798 8.15039L36.3398 10.1604C36.1598 10.1604 35.9798 10.1604 35.7998 10.1604H35.6598V8.15039H35.7998H35.7898Z" fill="white"/>
</mask>
<g mask="url(#mask0_580_20618)">
<path d="M7.05976 8.15039H64.5098V65.5904H7.05976V8.15039Z" fill="url(#paint0_linear_580_20618)"/>
</g>
<mask id="mask1_580_20618" style="mask-type:luminance" maskUnits="userSpaceOnUse" x="5" y="6" width="34" height="29">
<path d="M38.5703 6.13L38.3003 9.14C30.8903 8.47 23.6703 10.73 17.9603 15.49C12.2503 20.25 8.74031 26.96 8.07031 34.36L5.06032 34.09C5.80032 25.88 9.70031 18.45 16.0203 13.17C21.6203 8.5 28.5303 6 35.7403 6C36.6803 6 37.6203 6.04 38.5703 6.13Z" fill="white"/>
</mask>
<g mask="url(#mask1_580_20618)">
<path d="M5.06032 6H38.5703V34.36H5.06032V6Z" fill="url(#paint1_linear_580_20618)"/>
</g>
<mask id="mask2_580_20618" style="mask-type:luminance" maskUnits="userSpaceOnUse" x="11" y="12" width="25" height="25">
<path d="M35.791 15.2895C23.891 15.2895 14.211 24.9695 14.211 36.8695H11.191C11.191 23.3095 22.221 12.2695 35.791 12.2695V15.2895Z" fill="white"/>
</mask>
<g mask="url(#mask2_580_20618)">
<path d="M11.191 12.2695H35.791V36.8695H11.191V12.2695Z" fill="url(#paint2_linear_580_20618)"/>
</g>
<mask id="mask3_580_20618" style="mask-type:luminance" maskUnits="userSpaceOnUse" x="55" y="36" width="15" height="2">
<path d="M55.4501 36.3604H69.0801V37.3704H55.4501V36.3604Z" fill="white"/>
</mask>
<g mask="url(#mask3_580_20618)">
<path d="M55.4501 36.3604H69.0801V37.3704H55.4501V36.3604Z" fill="url(#paint3_linear_580_20618)"/>
</g>
<mask id="mask4_580_20618" style="mask-type:luminance" maskUnits="userSpaceOnUse" x="2" y="36" width="15" height="2">
<path d="M2.50086 36.3604H16.1309V37.3704H2.50086V36.3604Z" fill="white"/>
</mask>
<g mask="url(#mask4_580_20618)">
<path d="M2.50086 36.3604H16.1309V37.3704H2.50086V36.3604Z" fill="url(#paint4_linear_580_20618)"/>
</g>
<mask id="mask5_580_20618" style="mask-type:luminance" maskUnits="userSpaceOnUse" x="2" y="33" width="2" height="8">
<path d="M1.99976 33.5303H3.00977V40.1903H1.99976V33.5303Z" fill="white"/>
</mask>
<g mask="url(#mask5_580_20618)">
<path d="M1.99976 33.5303H3.00977V40.1903H1.99976V33.5303Z" fill="url(#paint5_linear_580_20618)"/>
</g>
<mask id="mask6_580_20618" style="mask-type:luminance" maskUnits="userSpaceOnUse" x="52" y="52" width="12" height="12">
<path d="M63.9607 53.6604C62.7607 55.6604 61.3507 57.5404 59.7607 59.2404C58.1307 60.9804 56.3007 62.5604 54.3307 63.9104L52.6207 61.4203C54.4207 60.1903 56.0807 58.7604 57.5607 57.1804C59.0107 55.6304 60.2907 53.9304 61.3807 52.1104L63.9707 53.6604H63.9607Z" fill="white"/>
</mask>
<g mask="url(#mask6_580_20618)">
<path d="M52.6109 52.1104H63.9609V63.9104H52.6109V52.1104Z" fill="url(#paint6_linear_580_20618)"/>
</g>
<mask id="mask7_580_20618" style="mask-type:luminance" maskUnits="userSpaceOnUse" x="12" y="13" width="48" height="48">
<path d="M35.4706 59.4503V60.4603H35.0506L35.0806 59.4503H35.4706ZM36.8906 60.4403L36.4806 60.4603L36.4406 59.4503L36.8406 59.4303L36.8806 60.4403H36.8906ZM34.0906 59.3903L34.0206 60.3903L33.6106 60.3603L33.7006 59.3603L34.0906 59.3903ZM38.3306 60.3303L37.9306 60.3703L37.8306 59.3703L38.2306 59.3303L38.3306 60.3303ZM32.7206 59.2503L32.5906 60.2503L32.1806 60.1903L32.3306 59.2003L32.7206 59.2503ZM39.7506 60.1303L39.3406 60.1903L39.1906 59.2003L39.5706 59.1403L39.7406 60.1303H39.7506ZM31.3706 59.0203L31.1706 60.0103L30.7706 59.9303L30.9806 58.9403L31.3706 59.0203ZM41.1606 59.8503L40.7606 59.9403L40.5506 58.9603L40.9306 58.8703L41.1606 59.8503ZM30.0306 58.7103L29.7706 59.6803L29.3806 59.5703L29.6506 58.6003L30.0306 58.7003V58.7103ZM42.5506 59.4803L42.1606 59.5903L41.8906 58.6203L42.2706 58.5103L42.5606 59.4803H42.5506ZM28.7106 58.3203L28.3906 59.2803L28.0006 59.1503L28.3306 58.2003L28.7106 58.3303V58.3203ZM43.9206 59.0203L43.5306 59.1603L43.2006 58.2103L43.5706 58.0803L43.9206 59.0203ZM27.4106 57.8503L27.0306 58.7903L26.6506 58.6303L27.0406 57.7003L27.4106 57.8503ZM45.2506 58.4903L44.8806 58.6503L44.4906 57.7203L44.8606 57.5603L45.2606 58.4903H45.2506ZM26.1406 57.3003L25.7106 58.2103L25.3406 58.0303L25.7806 57.1303L26.1406 57.3003ZM46.5506 57.8703L46.1806 58.0503L45.7406 57.1503L46.0906 56.9703L46.5506 57.8703ZM24.9206 56.6703L24.4306 57.5503L24.0706 57.3503L24.5706 56.4803L24.9106 56.6703H24.9206ZM47.8006 57.1803L47.4506 57.3903L46.9506 56.5203L47.2906 56.3203L47.8006 57.1903V57.1803ZM23.7306 55.9603L23.1906 56.8103L22.8406 56.5903L23.3906 55.7503L23.7206 55.9603H23.7306ZM49.0106 56.4103L48.6706 56.6403L48.1206 55.8003L48.4506 55.5803L49.0106 56.4103ZM22.5906 55.1903L22.0006 56.0103L21.6706 55.7703L22.2706 54.9603L22.5906 55.1903ZM50.1806 55.5703L49.8506 55.8203L49.2506 55.0103L49.5606 54.7703L50.1706 55.5703H50.1806ZM21.4906 54.3503L20.8506 55.1303C20.7406 55.0403 20.6306 54.9503 20.5306 54.8603L21.1906 54.1003C21.2906 54.1903 21.3906 54.2703 21.4906 54.3503ZM51.2906 54.6503C51.1906 54.7403 51.0806 54.8303 50.9706 54.9203L50.3306 54.1503C50.4306 54.0703 50.5306 53.9803 50.6206 53.9003L51.2806 54.6603L51.2906 54.6503ZM20.4606 53.4503L19.7806 54.1903L19.4806 53.9103L20.1806 53.1903L20.4606 53.4603V53.4503ZM52.3506 53.6803C52.2506 53.7803 52.1506 53.8703 52.0506 53.9703L51.3606 53.2403C51.4506 53.1503 51.5506 53.0603 51.6406 52.9703L52.3506 53.6803ZM19.4706 52.4803L18.7406 53.1803L18.4606 52.8803L19.2006 52.2003L19.4706 52.4903V52.4803ZM53.3406 52.6403L53.0606 52.9403L52.3206 52.2503L52.5906 51.9603L53.3406 52.6403ZM18.5506 51.4603L17.7806 52.1103L17.5206 51.8003L18.3006 51.1603L18.5506 51.4603ZM54.2706 51.5403L54.0106 51.8603L53.2306 51.2203L53.4806 50.9103L54.2706 51.5403ZM17.6906 50.3803L16.8806 50.9803L16.6406 50.6503L17.4606 50.0603L17.6906 50.3803ZM55.1306 50.3903L54.8906 50.7303L54.0806 50.1403L54.3106 49.8203L55.1406 50.4003L55.1306 50.3903ZM16.9106 49.2603L16.0706 49.8103L15.8506 49.4703L16.7006 48.9303L16.9106 49.2603ZM55.9206 49.1903L55.7006 49.5403L54.8506 49.0003L55.0606 48.6703L55.9206 49.2003V49.1903ZM16.1806 48.0903L15.3106 48.5903L15.1106 48.2303L15.9906 47.7403L16.1806 48.0903ZM56.6306 47.9303L56.4306 48.2903L55.5506 47.8003L55.7406 47.4603L56.6306 47.9303ZM15.5406 46.8703L14.6406 47.3203L14.4606 46.9503L15.3706 46.5203L15.5406 46.8703ZM57.2706 46.6403L57.1006 47.0103L56.1906 46.5803L56.3606 46.2203L57.2806 46.6403H57.2706ZM14.9706 45.6303L14.0406 46.0203L13.8906 45.6403L14.8206 45.2603L14.9706 45.6203V45.6303ZM57.8306 45.3103L57.6806 45.7003L56.7506 45.3203L56.9006 44.9603L57.8406 45.3203L57.8306 45.3103ZM14.4706 44.3403L13.5206 44.6703L13.3906 44.2803L14.3506 43.9703L14.4806 44.3403H14.4706ZM58.3006 43.9503L58.1706 44.3403L57.2206 44.0203L57.3406 43.6503L58.3006 43.9503ZM14.0606 43.0303L13.0906 43.3003L12.9806 42.9003L13.9506 42.6403L14.0506 43.0203L14.0606 43.0303ZM58.6906 42.5603L58.5906 42.9603L57.6206 42.7003L57.7206 42.3203L58.7006 42.5603H58.6906ZM13.7206 41.6903L12.7406 41.9103L12.6606 41.5103L13.6506 41.3103L13.7306 41.6903H13.7206ZM59.0006 41.1603L58.9206 41.5603L57.9306 41.3603L58.0006 40.9703L58.9906 41.1503L59.0006 41.1603ZM13.4706 40.3403L12.4806 40.4903L12.4206 40.0803L13.4206 39.9403L13.4806 40.3303L13.4706 40.3403ZM59.2106 39.7403L59.1606 40.1503L58.1606 40.0103L58.2106 39.6203L59.2106 39.7403ZM13.3006 38.9703L12.3006 39.0603L12.2606 38.6503L13.2706 38.5803L13.3006 38.9703ZM59.3406 38.3003L59.3106 38.7103L58.3106 38.6303L58.3406 38.2403L59.3506 38.3003H59.3406ZM13.2206 37.6003L12.2106 37.6303V37.2203L13.2106 37.2003V37.5903L13.2206 37.6003ZM59.3906 36.8703V37.2803L58.3806 37.2603V36.7803L59.3906 36.8703ZM13.2306 35.8303V36.2203L12.2106 36.1903V35.7803L13.2306 35.8203V35.8303ZM59.3606 35.7503L58.3506 35.8003L58.3306 35.4103L59.3306 35.3503L59.3506 35.7603L59.3606 35.7503ZM13.3306 34.4603L13.2906 34.8503L12.2906 34.7603L12.3306 34.3503L13.3306 34.4603ZM59.2506 34.3203L58.2506 34.4203L58.2106 34.0303L59.2106 33.9003L59.2606 34.3103L59.2506 34.3203ZM13.5206 33.0903L13.4606 33.4803L12.4606 33.3303L12.5206 32.9303L13.5106 33.1003L13.5206 33.0903ZM59.0506 32.8903L58.0606 33.0603L57.9906 32.6703L58.9806 32.4803L59.0506 32.8803V32.8903ZM13.7906 31.7403L13.7106 32.1203L12.7206 31.9103L12.8106 31.5103L13.7906 31.7403ZM58.7706 31.4803L57.7906 31.7103L57.7006 31.3303L58.6806 31.0803L58.7806 31.4803H58.7706ZM14.1406 30.4103L14.0306 30.7903L13.0606 30.5203L13.1706 30.1203L14.1406 30.4103ZM58.4006 30.0903L57.4406 30.3703L57.3206 30.0003L58.2806 29.6903L58.4006 30.0903ZM14.5706 29.1003L14.4406 29.4703L13.4906 29.1403L13.6306 28.7503L14.5706 29.1003ZM57.9406 28.7203L57.0006 29.0703L56.8606 28.7003L57.8006 28.3403L57.9406 28.7203ZM15.0906 27.8203L14.9306 28.1803L14.0006 27.7903L14.1606 27.4103L15.0806 27.8103L15.0906 27.8203ZM57.4106 27.3903L56.4906 27.7903L56.3306 27.4303L57.2406 27.0103L57.4106 27.3803V27.3903ZM15.6806 26.5703L15.5006 26.9203L14.6006 26.4803L14.7806 26.1103L15.6806 26.5703ZM56.7906 26.1003L55.8906 26.5603L55.7106 26.2103L56.6006 25.7403L56.7906 26.1003ZM16.3506 25.3703L16.1506 25.7103L15.2706 25.2103L15.4806 24.8503L16.3506 25.3703ZM56.1006 24.8403L55.2406 25.3503L55.0406 25.0103L55.9006 24.4803L56.1106 24.8303L56.1006 24.8403ZM17.0906 24.2003L16.8706 24.5303L16.0306 23.9803L16.2606 23.6403L17.0906 24.2103V24.2003ZM55.3306 23.6303L54.4906 24.1903L54.2706 23.8703L55.0906 23.2903L55.3306 23.6303ZM17.8906 23.0903L17.6506 23.4003L16.8406 22.8003L17.0906 22.4703L17.8906 23.0903ZM54.4806 22.4603L53.6806 23.0803L53.4406 22.7703L54.2206 22.1403L54.4706 22.4603H54.4806ZM18.7706 22.0203L18.5106 22.3203L17.7406 21.6703L18.0006 21.3603L18.7606 22.0203H18.7706ZM53.5706 21.3503L52.8106 22.0103L52.5506 21.7203L53.3006 21.0403L53.5706 21.3503ZM19.7006 21.0103L19.4306 21.2903L18.7006 20.6003L18.9906 20.3003L19.7106 21.0103H19.7006ZM52.5906 20.3003L51.8706 21.0003C51.7806 20.9103 51.6906 20.8203 51.5906 20.7303L52.2906 20.0103C52.3906 20.1103 52.4906 20.2003 52.5806 20.3003M20.7006 20.0603L20.4106 20.3203L19.7306 19.5803L20.0406 19.3003L20.7106 20.0503L20.7006 20.0603ZM51.5506 19.3103L50.8706 20.0503C50.7706 19.9603 50.6806 19.8803 50.5806 19.7903L51.2406 19.0303C51.3406 19.1203 51.4506 19.2103 51.5506 19.3003M21.7506 19.1803C21.6506 19.2603 21.5506 19.3403 21.4506 19.4203L20.8106 18.6503C20.9206 18.5603 21.0206 18.4703 21.1306 18.3903L21.7506 19.1803ZM50.4506 18.3803L49.8206 19.1703L49.5106 18.9303L50.1206 18.1303L50.4406 18.3803H50.4506ZM22.8506 18.3503L22.5306 18.5803L21.9406 17.7603L22.2806 17.5203L22.8606 18.3503H22.8506ZM49.3006 17.5203L48.7206 18.3403L48.4006 18.1203L48.9606 17.2803L49.3006 17.5203ZM24.0006 17.6003L23.6706 17.8103L23.1306 16.9603L23.4806 16.7403L24.0106 17.6003H24.0006ZM48.1006 16.7303L47.5706 17.5903L47.2406 17.3903L47.7506 16.5203C47.8706 16.5903 47.9906 16.6603 48.1106 16.7303M25.2006 16.9103L24.8606 17.1003L24.3706 16.2203L24.7306 16.0203L25.2006 16.9103ZM46.8406 16.0203L46.3706 16.9103L46.0206 16.7303L46.4806 15.8303L46.8406 16.0203ZM26.4306 16.3003L26.0806 16.4703L25.6406 15.5603L26.0106 15.3903L26.4306 16.3003ZM45.5506 15.3803L45.1406 16.3003L44.7806 16.1403L45.1806 15.2103L45.5606 15.3803H45.5506ZM27.7006 15.7703L27.3306 15.9203L26.9506 14.9903L27.3306 14.8403L27.6906 15.7803L27.7006 15.7703ZM44.2206 14.8203L43.8706 15.7603L43.5006 15.6203L43.8506 14.6703L44.2306 14.8103L44.2206 14.8203ZM29.0006 15.3203L28.6206 15.4403L28.3006 14.4803L28.6906 14.3503L29.0006 15.3103V15.3203ZM42.8606 14.3503L42.5606 15.3103L42.1806 15.1903L42.4706 14.2303L42.8606 14.3503ZM30.3206 14.9403L29.9306 15.0403L29.6706 14.0703L30.0606 13.9703L30.3106 14.9503L30.3206 14.9403ZM41.4706 13.9603L41.2306 14.9403L40.8506 14.8503L41.0706 13.8703L41.4706 13.9603ZM31.6706 14.6503L31.2806 14.7303L31.0806 13.7403L31.4806 13.6603L31.6606 14.6503H31.6706ZM40.0706 13.6603L39.8806 14.6503L39.5006 14.5803L39.6606 13.5903L40.0706 13.6603ZM33.0306 14.4503L32.6406 14.5003L32.5006 13.5003L32.9106 13.4503L33.0306 14.4503ZM38.6406 13.4403L38.5206 14.4403L38.1306 14.4003L38.2306 13.4003L38.6406 13.4503V13.4403ZM34.4006 14.3203L34.0106 14.3503L33.9306 13.3503L34.3406 13.3203L34.4106 14.3303L34.4006 14.3203ZM37.2106 13.3103L37.1606 14.3203L36.7606 14.3003L36.8006 13.2903L37.2106 13.3103ZM35.7806 14.2803H35.3806L35.3706 13.2803H35.7706V14.2803H35.7806Z" fill="white"/>
</mask>
<g mask="url(#mask7_580_20618)">
<path d="M12.2006 13.2705H59.3906V60.4605H12.2006V13.2705Z" fill="url(#paint7_linear_580_20618)"/>
</g>
<mask id="mask8_580_20618" style="mask-type:luminance" maskUnits="userSpaceOnUse" x="23" y="24" width="23" height="24">
<path d="M46 27.3599L36.95 36.4099L46 45.3699L43.55 47.8999L31.96 36.4099L43.55 24.9199L46 27.3599ZM37.77 27.3599L28.72 36.4099L37.77 45.3699L35.33 47.8999L23.84 36.4099L35.33 24.9199L37.77 27.3599Z" fill="white"/>
</mask>
<g mask="url(#mask8_580_20618)">
<path d="M23.83 24.9199H46V47.8999H23.83V24.9199Z" fill="url(#paint8_linear_580_20618)"/>
</g>
<defs>
<linearGradient id="paint0_linear_580_20618" x1="67.3578" y1="35.7234" x2="9.90776" y2="35.7234" gradientUnits="userSpaceOnUse">
<stop stop-color="#B48132"/>
<stop offset="1" stop-color="#EADA85"/>
</linearGradient>
<linearGradient id="paint1_linear_580_20618" x1="36.919" y1="20.6481" x2="3.40902" y2="20.6481" gradientUnits="userSpaceOnUse">
<stop stop-color="#B48132"/>
<stop offset="1" stop-color="#EADA85"/>
</linearGradient>
<linearGradient id="paint2_linear_580_20618" x1="35.183" y1="24.7855" x2="10.583" y2="24.7855" gradientUnits="userSpaceOnUse">
<stop stop-color="#B48132"/>
<stop offset="1" stop-color="#EADA85"/>
</linearGradient>
<linearGradient id="paint3_linear_580_20618" x1="69.6153" y1="36.7337" x2="55.9853" y2="36.7337" gradientUnits="userSpaceOnUse">
<stop stop-color="#B48132"/>
<stop offset="1" stop-color="#EADA85"/>
</linearGradient>
<linearGradient id="paint4_linear_580_20618" x1="16.6661" y1="36.7337" x2="3.03606" y2="36.7337" gradientUnits="userSpaceOnUse">
<stop stop-color="#B48132"/>
<stop offset="1" stop-color="#EADA85"/>
</linearGradient>
<linearGradient id="paint5_linear_580_20618" x1="5.60497" y1="36.2649" x2="4.59497" y2="36.2649" gradientUnits="userSpaceOnUse">
<stop stop-color="#B48132"/>
<stop offset="1" stop-color="#EADA85"/>
</linearGradient>
<linearGradient id="paint6_linear_580_20618" x1="61.6109" y1="58.8178" x2="50.2709" y2="58.8178" gradientUnits="userSpaceOnUse">
<stop stop-color="#B48132"/>
<stop offset="1" stop-color="#EADA85"/>
</linearGradient>
<linearGradient id="paint7_linear_580_20618" x1="62.412" y1="35.6966" x2="15.222" y2="35.6966" gradientUnits="userSpaceOnUse">
<stop stop-color="#B48132"/>
<stop offset="1" stop-color="#EADA85"/>
</linearGradient>
<linearGradient id="paint8_linear_580_20618" x1="45.3482" y1="36.5983" x2="23.1782" y2="36.5983" gradientUnits="userSpaceOnUse">
<stop stop-color="#B48132"/>
<stop offset="1" stop-color="#EADA85"/>
</linearGradient>
</defs>
</svg>
