<svg width="248" height="249" viewBox="0 0 248 249" fill="none" xmlns="http://www.w3.org/2000/svg">
<mask id="mask0_522_83430" style="mask-type:luminance" maskUnits="userSpaceOnUse" x="22" y="28" width="199" height="199">
<path d="M121.554 219.539H121.382L121.554 226.462C122.346 226.462 123.104 226.462 123.896 226.462L123.724 219.539C123 219.539 122.277 219.539 121.554 219.539ZM111.703 226.014C112.529 226.083 113.356 226.152 114.217 226.221L114.699 219.297C113.907 219.229 113.149 219.16 112.357 219.091L111.668 226.014H111.703ZM130.406 219.125L131.095 226.014C131.922 225.945 132.748 225.842 133.575 225.739L132.748 218.85C131.956 218.953 131.198 219.022 130.406 219.091M102.093 224.567C102.919 224.74 103.746 224.877 104.573 225.015L105.744 218.161C104.986 218.023 104.228 217.885 103.471 217.747L102.093 224.567ZM139.327 217.851L140.671 224.671C141.497 224.499 142.324 224.326 143.151 224.154L141.635 217.403C140.877 217.575 140.119 217.747 139.362 217.885M92.6894 222.225C93.4816 222.466 94.3083 222.707 95.1005 222.914L96.9605 216.232C96.2027 216.025 95.4449 215.819 94.6872 215.577L92.6894 222.225ZM148.076 215.681L150.074 222.329C150.866 222.087 151.693 221.846 152.485 221.571L150.315 214.992C149.557 215.233 148.834 215.474 148.076 215.715M83.5961 218.953C84.3538 219.263 85.1461 219.573 85.9038 219.883L88.4183 213.407C87.695 213.132 86.9716 212.822 86.2483 212.546L83.5961 218.953ZM156.584 212.65L159.236 219.056C160.028 218.746 160.786 218.402 161.578 218.057L158.754 211.72C158.031 212.03 157.307 212.34 156.584 212.65ZM74.8127 214.785C75.5361 215.164 76.2938 215.577 77.0516 215.956L80.1516 209.756C79.4627 209.412 78.7738 209.067 78.0849 208.689L74.8127 214.82V214.785ZM164.747 208.792L168.019 214.923C168.777 214.51 169.501 214.131 170.224 213.717L166.814 207.69C166.125 208.069 165.436 208.447 164.747 208.826M66.5116 209.791C67.2005 210.273 67.9238 210.721 68.6127 211.169L72.3327 205.313C71.6783 204.9 71.0238 204.486 70.3694 204.039L66.5116 209.791ZM172.497 204.176L176.355 209.929C177.044 209.446 177.733 208.999 178.422 208.516L174.426 202.833C173.806 203.281 173.152 203.729 172.497 204.142M58.7272 204.004C59.3816 204.555 60.0361 205.072 60.6905 205.589L64.9616 200.112C64.3416 199.63 63.7561 199.147 63.1361 198.665L58.7272 204.004ZM179.765 198.803L184.139 204.176C184.794 203.66 185.448 203.109 186.068 202.557L181.522 197.287C180.936 197.804 180.351 198.286 179.73 198.803M51.5627 197.494C52.1483 198.08 52.7683 198.665 53.3538 199.251L58.1416 194.222C57.5905 193.671 57.0049 193.12 56.4538 192.569L51.5627 197.46V197.494ZM186.447 192.741L191.338 197.632C191.924 197.046 192.509 196.461 193.095 195.841L188.101 191.019C187.549 191.57 186.998 192.155 186.447 192.706M45.0527 190.295C45.5694 190.95 46.1205 191.604 46.6716 192.224L51.9072 187.677C51.3905 187.092 50.9083 186.506 50.4261 185.886L45.0527 190.295ZM192.544 186.059L197.883 190.467C198.434 189.813 198.951 189.159 199.467 188.504L194.025 184.233C193.543 184.853 193.061 185.439 192.544 186.059ZM39.2661 182.511C39.7483 183.2 40.1961 183.889 40.6783 184.577L46.3616 180.582C45.9138 179.927 45.4661 179.307 45.0183 178.653L39.2661 182.511ZM197.917 178.86L203.669 182.717C204.152 182.029 204.599 181.34 205.047 180.616L199.192 176.862C198.778 177.516 198.331 178.171 197.917 178.825M34.2716 174.175C34.6505 174.933 35.0638 175.656 35.4772 176.38L41.5049 172.935C41.1261 172.281 40.7472 171.592 40.3683 170.903L34.2716 174.175ZM202.602 171.144L208.698 174.416C209.077 173.693 209.491 172.935 209.869 172.177L203.669 169.043C203.325 169.732 202.946 170.421 202.602 171.11M30.1038 165.392C30.4138 166.184 30.7583 166.942 31.1027 167.7L37.4405 164.875C37.1305 164.152 36.8205 163.429 36.5105 162.705L30.1038 165.357V165.392ZM206.459 163.015L212.866 165.702C213.176 164.944 213.486 164.152 213.796 163.36L207.32 160.845C207.045 161.569 206.735 162.292 206.459 163.015ZM26.8316 156.23C27.0727 157.056 27.3138 157.849 27.5894 158.641L34.1683 156.471C33.9272 155.747 33.6861 154.99 33.4449 154.232L26.7972 156.23H26.8316ZM209.525 154.542L216.173 156.574C216.414 155.782 216.655 154.955 216.862 154.163L210.179 152.303C209.973 153.061 209.766 153.784 209.525 154.542ZM24.4894 146.826C24.6616 147.653 24.8338 148.48 25.0061 149.272L31.7916 147.756C31.6194 146.999 31.4472 146.241 31.3094 145.449L24.4894 146.792V146.826ZM211.729 145.793L218.549 147.171C218.722 146.344 218.859 145.517 218.997 144.691L212.177 143.485C212.039 144.243 211.902 145.035 211.729 145.793ZM23.0772 137.251C23.1461 138.077 23.2494 138.904 23.3527 139.765L30.2416 138.904C30.1383 138.146 30.0694 137.354 30.0005 136.596L23.1116 137.251H23.0772ZM213.073 136.872L219.962 137.561C220.031 136.734 220.099 135.873 220.168 135.046L213.245 134.53C213.176 135.322 213.142 136.08 213.038 136.837M22.6294 127.572C22.6294 128.399 22.6294 129.26 22.6294 130.086L29.5527 129.914C29.5527 129.122 29.5527 128.364 29.5527 127.572V126.952L22.6294 126.883V127.572ZM213.521 125.54C213.521 126.229 213.521 126.883 213.521 127.503V127.882L220.478 127.572C220.478 126.849 220.478 126.125 220.478 125.402L213.555 125.54H213.521ZM22.9049 119.719L29.8283 120.27C29.8972 119.477 29.9661 118.72 30.0349 117.927L23.1461 117.204C23.0772 118.031 22.9738 118.857 22.9049 119.719ZM212.866 116.515C212.969 117.273 213.038 118.065 213.107 118.857L220.031 118.203C219.962 117.376 219.858 116.515 219.755 115.723L212.866 116.55V116.515ZM24.145 110.074L30.9649 111.28C31.1027 110.522 31.2405 109.73 31.4127 108.972L24.6272 107.56C24.4549 108.386 24.3172 109.213 24.145 110.04M211.385 107.629C211.557 108.386 211.729 109.144 211.867 109.902L218.687 108.593C218.515 107.766 218.343 106.94 218.171 106.113L211.385 107.629ZM26.3149 100.636L32.9972 102.531C33.2038 101.773 33.4449 101.05 33.6516 100.292L27.0383 98.2252C26.7972 99.0175 26.5561 99.8097 26.3149 100.636ZM209.008 98.9486C209.249 99.6719 209.491 100.43 209.697 101.187L216.345 99.1897C216.104 98.3975 215.863 97.5708 215.587 96.7786L209.008 98.9141V98.9486ZM29.4149 91.4397L35.8905 93.9886C36.1661 93.2652 36.4761 92.5419 36.7861 91.8186L30.4138 89.1319C30.1038 89.8897 29.7594 90.6819 29.4494 91.4397M205.771 90.4752C206.081 91.1986 206.391 91.9219 206.701 92.6452L213.107 90.0275C212.797 89.2697 212.453 88.4775 212.108 87.7197L205.736 90.5097L205.771 90.4752ZM33.3761 82.6219L39.5416 85.7908C39.8861 85.1019 40.2649 84.413 40.6438 83.7241L34.5472 80.4175C34.1338 81.1408 33.7549 81.8986 33.3761 82.6563M201.741 82.4497C202.119 83.1386 202.498 83.793 202.877 84.5164L209.008 81.2786C208.629 80.5208 208.216 79.7975 207.803 79.0741L201.775 82.4841L201.741 82.4497ZM38.1983 74.2175L44.0538 77.9719C44.4672 77.3175 44.8805 76.663 45.3283 76.043L39.6105 72.1508C39.1283 72.8397 38.6805 73.563 38.1983 74.2519M196.918 74.803C197.366 75.4575 197.814 76.0775 198.262 76.7664L204.048 72.9086C203.566 72.2197 203.118 71.5308 202.636 70.8419L196.953 74.803H196.918ZM43.8472 66.3297L49.2894 70.6352C49.7716 70.0152 50.2538 69.4297 50.7705 68.8097L45.4316 64.4008C44.8805 65.0552 44.3638 65.6752 43.8472 66.3641M191.373 67.673C191.889 68.2586 192.372 68.8786 192.888 69.4641L198.262 65.0897C197.745 64.4352 197.194 63.8152 196.643 63.1608L191.373 67.673ZM50.2194 58.993L55.2138 63.8152C55.7649 63.2641 56.3161 62.6786 56.8672 62.1275L51.9761 57.2019C51.3905 57.7875 50.805 58.373 50.2194 58.993ZM185.173 61.0941C185.724 61.6452 186.309 62.1964 186.826 62.7475L191.752 57.8563C191.166 57.2708 190.581 56.6852 189.961 56.0997L185.138 61.0941H185.173ZM57.2805 52.3452L61.7927 57.6152C62.3783 57.0986 62.9983 56.6163 63.5838 56.0997L59.2094 50.7264C58.5549 51.243 57.9005 51.7941 57.2805 52.3452ZM178.353 55.2041C178.973 55.6863 179.558 56.1686 180.178 56.6852L184.587 51.3463C183.933 50.8297 183.278 50.2786 182.624 49.7619L178.353 55.2041ZM64.9272 46.4208L68.8883 52.1041C69.5083 51.6563 70.1627 51.2086 70.8172 50.7952L66.9938 45.0086C66.305 45.4564 65.6161 45.9386 64.9272 46.4208ZM171.016 49.9686C171.671 50.3819 172.325 50.8297 172.979 51.243L176.872 45.4908C176.183 45.0086 175.494 44.5608 174.771 44.113L171.016 49.9686ZM73.1594 41.2541L76.5694 47.3163C77.2583 46.9375 77.9472 46.5586 78.6361 46.1797L75.3983 40.0486C74.6405 40.4275 73.9172 40.8408 73.1938 41.2541M163.197 45.5252C163.886 45.8697 164.575 46.2486 165.264 46.593L168.57 40.4964C167.847 40.083 167.089 39.7041 166.366 39.3252L163.232 45.5252H163.197ZM81.8394 36.9141L84.6294 43.2863C85.3527 42.9763 86.0761 42.6663 86.7994 42.3563L84.1816 35.9497C83.3894 36.2597 82.6316 36.6041 81.8738 36.9141M154.965 41.8397C155.688 42.1152 156.412 42.4252 157.135 42.7008L159.822 36.2941C159.064 35.9841 158.272 35.6741 157.514 35.3641L154.965 41.8052V41.8397ZM90.9327 33.4697L93.1027 40.0486C93.8261 39.8075 94.5838 39.5663 95.3416 39.3597L93.3783 32.7119C92.5861 32.953 91.7594 33.1941 90.9672 33.4697M146.423 38.9463C147.18 39.1875 147.938 39.3941 148.696 39.6352L150.728 32.9875C149.936 32.7463 149.144 32.5052 148.317 32.2641L146.423 38.9119V38.9463ZM100.267 30.9208L101.783 37.6719C102.541 37.4997 103.298 37.3619 104.056 37.1897L102.747 30.3697C101.921 30.5419 101.094 30.7141 100.267 30.8863M137.639 36.983C138.397 37.1208 139.189 37.2586 139.947 37.4308L141.325 30.6452C140.498 30.473 139.672 30.3352 138.845 30.163L137.639 36.983ZM109.877 29.3019L110.704 36.1908C111.496 36.0875 112.254 36.0186 113.046 35.9497L112.426 29.0263C111.599 29.0952 110.738 29.1986 109.912 29.3019M128.684 35.8463C129.476 35.9152 130.268 35.9841 131.026 36.053L131.715 29.1641C130.888 29.0608 130.062 28.9919 129.235 28.923L128.684 35.8463ZM121.554 28.6475C120.865 28.6475 120.211 28.6475 119.522 28.6475L119.659 35.5708C120.279 35.5708 120.899 35.5708 121.519 35.5708H122.002V28.6475H121.519H121.554Z" fill="white"/>
</mask>
<g mask="url(#mask0_522_83430)">
<path d="M220.513 28.6475H22.6294V226.496H220.513V28.6475Z" fill="url(#paint0_linear_522_83430)"/>
</g>
<mask id="mask1_522_83430" style="mask-type:luminance" maskUnits="userSpaceOnUse" x="111" y="21" width="117" height="98">
<path d="M111.978 21.689L112.908 32.0568C138.431 29.749 163.3 37.5334 182.968 53.929C202.636 70.3245 214.726 93.4368 217.034 118.926L227.401 117.996C224.852 89.7168 211.419 64.1245 189.65 45.9379C170.361 29.8523 146.56 21.2412 121.726 21.2412C118.488 21.2412 115.25 21.379 111.978 21.689Z" fill="white"/>
</mask>
<g mask="url(#mask1_522_83430)">
<path d="M227.401 21.2412H111.978V118.926H227.401V21.2412Z" fill="url(#paint1_linear_522_83430)"/>
</g>
<mask id="mask2_522_83430" style="mask-type:luminance" maskUnits="userSpaceOnUse" x="121" y="42" width="86" height="86">
<path d="M121.555 53.2382C162.544 53.2382 195.886 86.5804 195.886 127.569H206.288C206.288 80.8626 168.296 42.8359 121.555 42.8359V53.2382Z" fill="white"/>
</mask>
<g mask="url(#mask2_522_83430)">
<path d="M206.288 42.8359H121.555V127.569H206.288V42.8359Z" fill="url(#paint2_linear_522_83430)"/>
</g>
<mask id="mask3_522_83430" style="mask-type:luminance" maskUnits="userSpaceOnUse" x="6" y="125" width="48" height="5">
<path d="M53.8364 125.815H6.88867V129.294H53.8364V125.815Z" fill="white"/>
</mask>
<g mask="url(#mask3_522_83430)">
<path d="M53.8364 125.815H6.88867V129.294H53.8364V125.815Z" fill="url(#paint3_linear_522_83430)"/>
</g>
<mask id="mask4_522_83430" style="mask-type:luminance" maskUnits="userSpaceOnUse" x="189" y="125" width="48" height="5">
<path d="M236.221 125.815H189.273V129.294H236.221V125.815Z" fill="white"/>
</mask>
<g mask="url(#mask4_522_83430)">
<path d="M236.221 125.815H189.273V129.294H236.221V125.815Z" fill="url(#paint4_linear_522_83430)"/>
</g>
<mask id="mask5_522_83430" style="mask-type:luminance" maskUnits="userSpaceOnUse" x="234" y="116" width="4" height="24">
<path d="M237.942 116.067H234.463V139.007H237.942V116.067Z" fill="white"/>
</mask>
<g mask="url(#mask5_522_83430)">
<path d="M237.942 116.067H234.463V139.007H237.942V116.067Z" fill="url(#paint5_linear_522_83430)"/>
</g>
<mask id="mask6_522_83430" style="mask-type:luminance" maskUnits="userSpaceOnUse" x="24" y="180" width="40" height="41">
<path d="M24.5242 185.404C28.6575 192.293 33.5142 198.769 38.9909 204.624C44.6053 210.618 50.9086 216.06 57.6942 220.71L63.5842 212.133C57.3842 207.897 51.6664 202.971 46.5686 197.529C41.5742 192.19 37.1653 186.334 33.4109 180.065L24.4897 185.404H24.5242Z" fill="white"/>
</mask>
<g mask="url(#mask6_522_83430)">
<path d="M63.6174 180.065H24.5229V220.71H63.6174V180.065Z" fill="url(#paint6_linear_522_83430)"/>
</g>
<mask id="mask7_522_83430" style="mask-type:luminance" maskUnits="userSpaceOnUse" x="40" y="46" width="163" height="163">
<path d="M122.656 205.347V208.826H124.103L124 205.347H122.656ZM117.765 208.757L119.177 208.826L119.315 205.347L117.937 205.279L117.8 208.757H117.765ZM127.41 205.141L127.651 208.585L129.063 208.482L128.753 205.037L127.41 205.141ZM112.805 208.379L114.183 208.516L114.527 205.072L113.15 204.934L112.805 208.379ZM132.128 204.659L132.576 208.103L133.988 207.896L133.472 204.486L132.128 204.659ZM107.914 207.69L109.326 207.896L109.843 204.486L108.534 204.28L107.948 207.69H107.914ZM136.778 203.866L137.467 207.276L138.845 207.001L138.122 203.591L136.778 203.866ZM103.057 206.725L104.435 207.035L105.158 203.66L103.85 203.35L103.057 206.725ZM141.394 202.799L142.29 206.14L143.633 205.761L142.703 202.42L141.394 202.764V202.799ZM98.2696 205.451L99.6129 205.83L100.543 202.489L99.234 202.11L98.2351 205.451H98.2696ZM145.941 201.455L147.043 204.762L148.386 204.314L147.25 201.042L145.941 201.49V201.455ZM93.5507 203.866L94.894 204.349L96.0307 201.076L94.7563 200.629L93.5507 203.866ZM150.418 199.836L151.727 203.074L153.036 202.523L151.693 199.32L150.418 199.836ZM88.9696 202.041L90.244 202.592L91.5874 199.389L90.3129 198.837L88.9351 202.041H88.9696ZM154.793 197.942L156.274 201.076L157.548 200.456L156.033 197.356L154.793 197.942ZM84.4918 199.905L85.7663 200.525L87.2818 197.425L86.0763 196.805L84.4918 199.905ZM158.995 195.772L160.683 198.803L161.923 198.114L160.201 195.117L159.03 195.772H158.995ZM80.1863 197.529L81.3918 198.252L83.114 195.255L81.9429 194.566L80.1863 197.563V197.529ZM163.094 193.326L164.954 196.254L166.16 195.496L164.265 192.603L163.128 193.326H163.094ZM76.0185 194.876L77.1896 195.669L79.084 192.775L77.9474 192.017L76.0185 194.876ZM167.021 190.674L169.053 193.499L170.19 192.672L168.123 189.882L167.021 190.674ZM71.9885 191.983L73.1251 192.844L75.1918 190.054L74.124 189.227L72.0229 191.983H71.9885ZM170.81 187.781L173.014 190.467C173.393 190.157 173.772 189.847 174.116 189.537L171.843 186.92C171.498 187.23 171.154 187.505 170.81 187.781ZM68.1651 188.814C68.5096 189.124 68.8885 189.434 69.2674 189.744L71.4718 187.092C71.1274 186.816 70.7829 186.506 70.4729 186.231L68.1996 188.849L68.1651 188.814ZM174.357 184.681L176.7 187.23L177.733 186.265L175.322 183.785L174.357 184.715V184.681ZM64.514 185.473C64.8585 185.817 65.2029 186.127 65.5474 186.472L67.924 183.957C67.614 183.647 67.2696 183.337 66.9596 183.027L64.514 185.473ZM177.767 181.34L180.282 183.751L181.246 182.717L178.697 180.375L177.767 181.374V181.34ZM61.104 181.891L62.0685 182.924L64.6174 180.547L63.6874 179.549L61.104 181.891ZM180.936 177.826L183.588 180.065L184.484 178.997L181.797 176.793L180.936 177.826ZM57.9007 178.102L58.7962 179.204L61.4829 177L60.6218 175.932L57.9007 178.102ZM183.898 174.106L186.688 176.173L187.515 175.036L184.691 173.004L183.898 174.106ZM54.9385 174.141L55.7651 175.312L58.5551 173.28L57.7629 172.177L54.904 174.175L54.9385 174.141ZM186.585 170.248L189.478 172.143L190.236 170.972L187.308 169.112L186.585 170.248ZM52.2174 170.007L52.9751 171.213L55.9029 169.353L55.1796 168.216L52.2174 170.042V170.007ZM189.1 166.219L192.096 167.941L192.785 166.701L189.754 165.013L189.1 166.219ZM49.7718 165.667L50.4607 166.907L53.4918 165.22L52.8374 164.049L49.7718 165.667ZM191.304 162.016L194.404 163.566L195.024 162.292L191.89 160.811L191.304 162.016ZM47.5674 161.224L48.1529 162.498L51.2874 161.017L50.7018 159.777L47.5329 161.224H47.5674ZM193.267 157.745L196.471 159.089L196.987 157.78L193.784 156.471L193.267 157.711V157.745ZM45.6385 156.643L46.1551 157.986L49.3585 156.677L48.8418 155.437L45.604 156.677L45.6385 156.643ZM194.99 153.302L198.262 154.438L198.71 153.095L195.403 152.027L194.955 153.302H194.99ZM44.0196 151.959L44.4674 153.302L47.7396 152.2L47.3262 150.925L44.0196 151.959ZM196.402 148.79L199.743 149.72L200.122 148.342L196.781 147.446L196.436 148.755L196.402 148.79ZM42.6763 147.171L43.0207 148.548L46.3618 147.653L46.0174 146.344L42.6418 147.171H42.6763ZM197.573 144.174L200.948 144.932L201.224 143.554L197.814 142.865L197.538 144.174H197.573ZM41.6085 142.348L41.884 143.726L45.294 143.037L45.0529 141.694L41.6429 142.314L41.6085 142.348ZM198.434 139.524L201.844 140.041L202.051 138.629L198.606 138.146L198.4 139.49L198.434 139.524ZM40.8851 137.457L41.0574 138.87L44.5018 138.387L44.3296 137.044L40.8851 137.457ZM199.02 134.805L202.464 135.115L202.602 133.703L199.123 133.462L199.02 134.805ZM40.4374 132.497L40.5407 133.91L43.9851 133.634L43.8818 132.291L40.4029 132.497H40.4374ZM199.295 130.086L202.774 130.19V128.777L199.33 128.708V130.052L199.295 130.086ZM40.2651 127.572V128.984L43.744 128.915V127.262L40.2651 127.572ZM199.261 123.99V125.333L202.774 125.23V123.817L199.261 123.955V123.99ZM40.3685 123.714L43.8474 123.886L43.9162 122.543L40.4718 122.336L40.4029 123.748L40.3685 123.714ZM198.916 119.271L199.054 120.614L202.498 120.304L202.361 118.892L198.916 119.271ZM40.7474 118.788L44.1918 119.133L44.3296 117.79L40.8851 117.342L40.7129 118.754L40.7474 118.788ZM198.262 114.552L198.468 115.895L201.913 115.378L201.706 114.001L198.296 114.586L198.262 114.552ZM41.4362 113.863L44.8463 114.448L45.0874 113.105L41.6774 112.451L41.4362 113.828V113.863ZM197.332 109.902L197.607 111.211L201.017 110.487L200.707 109.11L197.332 109.902ZM42.4007 109.006L45.7762 109.798L46.0862 108.49L42.7107 107.628L42.3663 109.006H42.4007ZM196.126 105.321L196.505 106.63L199.846 105.7L199.467 104.322L196.126 105.321ZM43.6751 104.218L46.9818 105.183L47.3951 103.908L44.0885 102.841L43.6751 104.218ZM194.645 100.808L195.093 102.083L198.365 100.946L197.883 99.6029L194.645 100.808ZM45.2596 99.4996L48.4974 100.705L48.9796 99.4307L45.7418 98.1907L45.2596 99.4996ZM192.854 96.3996L193.405 97.6396L196.608 96.2963L196.057 94.9874L192.888 96.3652L192.854 96.3996ZM47.0851 94.9185L50.254 96.2963L50.8051 95.0563L47.6707 93.6096L47.0851 94.884V94.9185ZM190.822 92.094L191.442 93.2996L194.542 91.784L193.922 90.5096L190.822 92.094ZM49.2207 90.4752L52.3207 92.0596L52.9407 90.854L49.8751 89.2352L49.2207 90.4752ZM188.514 87.9607L189.203 89.1318L192.234 87.4096L191.511 86.1696L188.514 87.9607ZM51.5974 86.1352L54.5596 87.8918L55.2485 86.7207L52.2863 84.8952L51.5629 86.1007L51.5974 86.1352ZM185.965 83.9307L186.723 85.0674L189.616 83.1729L188.824 82.0018L185.965 83.9652V83.9307ZM54.2496 81.9674L57.1429 83.8963L57.9007 82.7941L55.0762 80.7963L54.2496 81.9674ZM183.21 80.1074L184.036 81.1752L186.826 79.1085L185.965 77.9718L183.21 80.1074ZM57.1774 77.9374L59.9329 80.0729L60.7596 79.0052L58.0729 76.8352L57.2118 77.9374H57.1774ZM180.178 76.4218L181.074 77.4552L183.726 75.2163L182.831 74.1485L180.213 76.4218H180.178ZM60.3118 74.114L62.9296 76.3874L63.8251 75.3885L61.2418 73.0463L60.3118 74.114ZM176.975 72.9429L177.905 73.9074L180.42 71.5307L179.421 70.4974L176.941 72.9429H176.975ZM63.6874 70.4974L66.1674 72.9085C66.4774 72.5985 66.7874 72.2885 67.1318 71.9785L64.7207 69.4985C64.3763 69.8429 64.0318 70.1529 63.7218 70.4974M173.531 69.6707L174.53 70.5663L176.872 68.0174L175.804 67.0529L173.496 69.6363L173.531 69.6707ZM67.2696 67.0874L69.6118 69.6363C69.9562 69.3263 70.2663 69.0507 70.6107 68.7407L68.3374 66.1229C67.9929 66.4329 67.614 66.7429 67.2696 67.0529M169.914 66.6396C170.258 66.9152 170.603 67.1907 170.947 67.4663L173.152 64.814C172.773 64.504 172.428 64.1941 172.05 63.9185L169.914 66.6396ZM71.0585 63.8841L73.2285 66.6052L74.2962 65.7785L72.1951 63.0229L71.0929 63.8841H71.0585ZM166.125 63.7807L167.227 64.5729L169.26 61.7485L168.088 60.9218L166.091 63.7807H166.125ZM75.0196 60.9218L77.0174 63.7463L78.1196 62.9885L76.1907 60.0952L75.0196 60.9218ZM162.164 61.1974L163.301 61.9207L165.161 58.9929L163.955 58.2352L162.13 61.1974H162.164ZM79.1529 58.2007L80.9785 61.1629L82.1151 60.4741L80.3585 57.4774C79.9451 57.7185 79.5318 57.9596 79.1185 58.2007M158.031 58.8207L159.202 59.4752L160.89 56.444L159.65 55.7552L158.031 58.8207ZM83.4929 55.7552L85.1118 58.8207L86.3174 58.2007L84.7329 55.1007L83.4929 55.7552ZM153.794 56.7196L155 57.3052L156.515 54.1707L155.241 53.5852L153.794 56.7196ZM87.9363 53.5507L89.3485 56.7196L90.5885 56.1685L89.2107 52.9652L87.9018 53.5507H87.9363ZM149.42 54.8941L150.694 55.4107L152.003 52.2074L150.694 51.6907L149.454 54.9285L149.42 54.8941ZM92.5174 51.6218L93.7229 54.8596L94.9974 54.3774L93.7918 51.1052L92.4829 51.5874L92.5174 51.6218ZM144.942 53.344L146.251 53.7574L147.353 50.4507L146.01 50.0029L144.942 53.3096V53.344ZM97.2018 50.0029L98.2351 53.3096L99.544 52.8963L98.5451 49.5896L97.2018 50.0029ZM140.395 52.0352L141.738 52.3796L142.634 49.0385L141.291 48.694L140.43 52.0696L140.395 52.0352ZM101.99 48.6596L102.816 52.0352L104.125 51.7252L103.367 48.3496L101.99 48.6596ZM135.745 51.0363L137.088 51.3118L137.777 47.9018L136.4 47.6263L135.78 51.0363H135.745ZM106.812 47.6263L107.466 51.0363L108.775 50.7952L108.224 47.3852L106.812 47.6263ZM131.061 50.3474L132.404 50.5196L132.886 47.0752L131.474 46.9029L131.061 50.3474ZM111.737 46.8685L112.151 50.3129L113.494 50.1752L113.15 46.7307L111.737 46.9029V46.8685ZM126.342 49.8996L127.685 50.0029L127.961 46.5585L126.548 46.4552L126.307 49.934L126.342 49.8996ZM116.663 46.4207L116.835 49.8996L118.213 49.8307L118.075 46.3518L116.663 46.4207ZM121.588 49.7618H122.966L123.001 46.3174H121.623V49.7618H121.588Z" fill="white"/>
</mask>
<g mask="url(#mask7_522_83430)">
<path d="M202.808 46.2842H40.2651V208.828H202.808V46.2842Z" fill="url(#paint7_linear_522_83430)"/>
</g>
<mask id="mask8_522_83430" style="mask-type:luminance" maskUnits="userSpaceOnUse" x="86" y="86" width="77" height="80">
<path d="M86.3867 94.8136L117.559 125.986L86.3867 156.848L94.8256 165.563L134.747 125.986L94.8256 86.4092L86.3867 94.8136ZM114.734 94.8136L145.907 125.986L114.734 156.848L123.139 165.563L162.716 125.986L123.139 86.4092L114.734 94.8136Z" fill="white"/>
</mask>
<g mask="url(#mask8_522_83430)">
<path d="M162.75 86.4092H86.3867V165.563H162.75V86.4092Z" fill="url(#paint8_linear_522_83430)"/>
</g>
<defs>
<linearGradient id="paint0_linear_522_83430" x1="12.8196" y1="123.621" x2="210.703" y2="123.621" gradientUnits="userSpaceOnUse">
<stop stop-color="#B48132"/>
<stop offset="1" stop-color="#EADA85"/>
</linearGradient>
<linearGradient id="paint1_linear_522_83430" x1="117.666" y1="71.6958" x2="233.089" y2="71.6958" gradientUnits="userSpaceOnUse">
<stop stop-color="#B48132"/>
<stop offset="1" stop-color="#EADA85"/>
</linearGradient>
<linearGradient id="paint2_linear_522_83430" x1="123.649" y1="85.9466" x2="208.382" y2="85.9466" gradientUnits="userSpaceOnUse">
<stop stop-color="#B48132"/>
<stop offset="1" stop-color="#EADA85"/>
</linearGradient>
<linearGradient id="paint3_linear_522_83430" x1="5.04521" y1="127.101" x2="51.993" y2="127.101" gradientUnits="userSpaceOnUse">
<stop stop-color="#B48132"/>
<stop offset="1" stop-color="#EADA85"/>
</linearGradient>
<linearGradient id="paint4_linear_522_83430" x1="187.429" y1="127.101" x2="234.377" y2="127.101" gradientUnits="userSpaceOnUse">
<stop stop-color="#B48132"/>
<stop offset="1" stop-color="#EADA85"/>
</linearGradient>
<linearGradient id="paint5_linear_522_83430" x1="225.524" y1="125.487" x2="229.003" y2="125.487" gradientUnits="userSpaceOnUse">
<stop stop-color="#B48132"/>
<stop offset="1" stop-color="#EADA85"/>
</linearGradient>
<linearGradient id="paint6_linear_522_83430" x1="32.6174" y1="203.169" x2="71.6774" y2="203.169" gradientUnits="userSpaceOnUse">
<stop stop-color="#B48132"/>
<stop offset="1" stop-color="#EADA85"/>
</linearGradient>
<linearGradient id="paint7_linear_522_83430" x1="29.8581" y1="123.53" x2="192.401" y2="123.53" gradientUnits="userSpaceOnUse">
<stop stop-color="#B48132"/>
<stop offset="1" stop-color="#EADA85"/>
</linearGradient>
<linearGradient id="paint8_linear_522_83430" x1="88.6318" y1="126.635" x2="164.995" y2="126.635" gradientUnits="userSpaceOnUse">
<stop stop-color="#B48132"/>
<stop offset="1" stop-color="#EADA85"/>
</linearGradient>
</defs>
</svg>
