<?xml version="1.0" encoding="UTF-8"?>
<svg id="Layer_2" data-name="Layer 2" xmlns="http://www.w3.org/2000/svg" xmlns:xlink="http://www.w3.org/1999/xlink" viewBox="0 0 330.11 329.76">
  <defs>
    <style>
      .cls-1 {
        fill: #fff;
      }

      .cls-2 {
        fill: #4dffff;
      }

      .cls-3 {
        filter: url(#outer-glow-1);
      }
    </style>
    <filter id="outer-glow-1" x="-15.38" y="-15.91" width="361" height="361" filterUnits="userSpaceOnUse">
      <feOffset dx="0" dy="0"/>
      <feGaussianBlur result="blur" stdDeviation="5"/>
      <feFlood flood-color="#fff" flood-opacity=".5"/>
      <feComposite in2="blur" operator="in"/>
      <feComposite in="SourceGraphic"/>
    </filter>
  </defs>
  <g id="bi">
    <g class="cls-3">
      <path class="cls-1" d="M169.65,316.87c-81.3,0-147.44-66.14-147.44-147.44S88.35,21.98,169.65,21.98s147.44,66.14,147.44,147.44-66.14,147.44-147.44,147.44ZM169.65,23.79C89.35,23.79,24.01,89.12,24.01,169.43s65.33,145.64,145.64,145.64,145.64-65.33,145.64-145.64S249.96,23.79,169.65,23.79ZM169.65,304.05c-74.23,0-134.63-60.39-134.63-134.62S95.42,34.8,169.65,34.8s134.62,60.39,134.62,134.63-60.39,134.62-134.62,134.62ZM169.65,36.6c-73.24,0-132.82,59.58-132.82,132.82s59.59,132.82,132.82,132.82,132.82-59.58,132.82-132.82S242.89,36.6,169.65,36.6Z"/>
      <path class="cls-2" d="M169.65,276.41c-58.99,0-106.99-47.99-106.99-106.99s47.99-106.99,106.99-106.99,106.99,47.99,106.99,106.99-47.99,106.99-106.99,106.99ZM169.65,64.24c-58,0-105.19,47.19-105.19,105.19s47.19,105.19,105.19,105.19,105.19-47.19,105.19-105.19-47.19-105.19-105.19-105.19Z"/>
      <path class="cls-2" d="M279.55,169.43h-10.81c0-54.63-44.45-99.08-99.08-99.08v-10.81c60.6,0,109.89,49.3,109.89,109.89Z"/>
      <path class="cls-1" d="M169.65,302.21c-.61,0-1.23,0-1.84-.01l.07-5.4c.59,0,1.18.01,1.77.01v5.4ZM174.62,302.12l-.2-5.4c.59-.02,1.17-.05,1.76-.08l.28,5.4c-.61.03-1.23.06-1.84.08ZM160.47,301.9c-.61-.04-1.22-.09-1.83-.14l.44-5.39c.59.05,1.17.09,1.76.13l-.37,5.39ZM183.79,301.46l-.57-5.38c.58-.06,1.17-.13,1.75-.2l.64,5.37c-.61.07-1.22.14-1.83.21ZM151.33,300.95c-.61-.08-1.22-.17-1.82-.27l.82-5.34c.58.09,1.16.17,1.74.25l-.74,5.35ZM192.89,300.18l-.94-5.32c.58-.1,1.16-.21,1.74-.32l1.01,5.31c-.6.12-1.2.23-1.81.33ZM142.27,299.37c-.6-.13-1.2-.26-1.8-.39l1.19-5.27c.57.13,1.15.25,1.72.38l-1.12,5.29ZM201.88,298.26l-1.31-5.24c.57-.14,1.14-.29,1.71-.44l1.39,5.22c-.59.16-1.19.31-1.78.46ZM133.35,297.17c-.59-.17-1.18-.34-1.77-.52l1.55-5.18c.56.17,1.13.33,1.69.49l-1.48,5.2ZM210.72,295.71l-1.68-5.14c.56-.18,1.12-.37,1.68-.56l1.74,5.12c-.58.2-1.16.39-1.74.58ZM124.59,294.34c-.58-.21-1.16-.42-1.73-.64l1.91-5.06c.55.21,1.1.41,1.66.61l-1.84,5.08ZM219.33,292.57l-2.02-5.01c.54-.22,1.08-.44,1.62-.67l2.1,4.98c-.56.24-1.13.47-1.7.7ZM116.04,290.9c-.56-.25-1.12-.5-1.68-.76l2.26-4.91c.53.25,1.07.49,1.61.73l-2.19,4.94ZM227.71,288.83l-2.37-4.86c.53-.26,1.05-.52,1.57-.78l2.44,4.82c-.55.28-1.09.55-1.64.82ZM107.76,286.88c-.54-.29-1.08-.58-1.62-.87l2.59-4.74c.52.28,1.04.56,1.56.84l-2.53,4.78ZM235.82,284.52l-2.7-4.68c.51-.29,1.02-.59,1.52-.89l2.76,4.65c-.53.31-1.05.62-1.58.93ZM99.78,282.3c-.52-.32-1.04-.65-1.56-.98l2.92-4.55c.5.32.99.63,1.49.94l-2.85,4.59ZM243.61,279.66l-3.02-4.48c.49-.33.97-.66,1.46-1l3.08,4.44c-.5.35-1.01.69-1.51,1.03ZM92.13,277.18c-.5-.36-.99-.72-1.48-1.08l3.21-4.35c.47.35.95.7,1.43,1.05l-3.16,4.38ZM251.04,274.28l-3.32-4.27c.46-.36.92-.72,1.38-1.09l3.38,4.22c-.48.38-.96.76-1.44,1.14ZM84.87,271.55c-.47-.39-.94-.79-1.41-1.19l3.51-4.11c.45.38.9.76,1.35,1.14l-3.46,4.15ZM258.1,268.39l-3.6-4.03c.44-.39.87-.79,1.3-1.18l3.66,3.98c-.45.42-.91.83-1.36,1.24ZM78.01,265.43c-.44-.42-.88-.85-1.32-1.28l3.79-3.86c.42.41.84.82,1.27,1.23l-3.73,3.91ZM264.73,262.03l-3.87-3.77c.41-.42.82-.85,1.22-1.27l3.92,3.72c-.42.44-.85.88-1.27,1.32ZM71.58,258.86c-.41-.45-.82-.91-1.23-1.37l4.04-3.59c.39.44.78.88,1.18,1.31l-3.99,3.64ZM270.91,255.24l-4.12-3.5c.38-.45.76-.9,1.13-1.35l4.17,3.44c-.39.47-.78.94-1.18,1.41ZM65.62,251.86c-.38-.48-.76-.96-1.13-1.45l4.28-3.3c.36.47.72.93,1.09,1.39l-4.23,3.36ZM276.62,248.02l-4.35-3.21c.35-.47.69-.95,1.04-1.43l4.39,3.15c-.36.5-.72,1-1.08,1.49ZM60.16,244.48c-.35-.5-.69-1.01-1.03-1.52l4.49-3c.33.49.66.97.99,1.46l-4.45,3.06ZM281.82,240.43l-4.56-2.9c.32-.5.63-1,.94-1.5l4.6,2.84c-.32.52-.65,1.04-.98,1.56ZM55.22,236.74c-.31-.53-.62-1.06-.92-1.59l4.69-2.68c.29.51.59,1.02.88,1.52l-4.65,2.75ZM286.48,232.5l-4.75-2.57c.28-.52.56-1.04.83-1.56l4.79,2.51c-.29.54-.57,1.08-.86,1.62ZM50.83,228.68c-.27-.54-.54-1.09-.81-1.64l4.86-2.36c.26.53.52,1.06.78,1.58l-4.83,2.42ZM290.58,224.26l-4.92-2.24c.24-.54.48-1.07.72-1.61l4.95,2.17c-.25.56-.5,1.13-.75,1.68ZM47.01,220.34c-.23-.56-.47-1.13-.69-1.7l5.02-2.01c.22.54.44,1.09.66,1.63l-4.99,2.08ZM294.1,215.75l-5.07-1.89c.21-.55.41-1.11.61-1.67l5.09,1.82c-.21.58-.42,1.15-.63,1.73ZM43.78,211.74c-.2-.58-.39-1.16-.58-1.75l5.15-1.65c.18.56.36,1.12.55,1.67l-5.12,1.73ZM297.02,207.01l-5.18-1.53c.17-.56.33-1.13.49-1.69l5.2,1.46c-.17.59-.34,1.18-.51,1.77ZM41.15,202.93c-.15-.59-.3-1.18-.45-1.78l5.25-1.3c.14.57.29,1.14.44,1.71l-5.23,1.36ZM299.32,198.11l-5.28-1.16c.13-.57.25-1.15.37-1.73l5.29,1.09c-.12.6-.25,1.2-.38,1.8ZM39.14,193.96c-.11-.6-.22-1.21-.33-1.81l5.33-.92c.1.58.2,1.16.31,1.73l-5.31,1ZM300.99,189.07l-5.35-.8c.09-.58.17-1.16.25-1.74l5.36.72c-.08.61-.17,1.22-.26,1.82ZM37.76,184.88c-.07-.61-.14-1.22-.2-1.83l5.38-.55c.06.58.12,1.17.19,1.75l-5.37.63ZM302.02,179.94l-5.39-.43c.05-.58.09-1.17.13-1.76l5.39.35c-.04.61-.08,1.23-.13,1.84ZM37.01,175.72c-.03-.61-.05-1.22-.07-1.84l5.4-.18c.02.59.04,1.18.07,1.76l-5.4.25ZM302.43,170.76l-5.4-.05v-1.76s5.41-.03,5.41-.03v1.84ZM42.3,166.64l-5.4-.12c.01-.61.03-1.23.05-1.84l5.4.19c-.02.59-.04,1.18-.05,1.76ZM296.81,161.89c-.03-.59-.07-1.18-.12-1.76l5.39-.39c.04.61.08,1.22.12,1.83l-5.4.32ZM42.79,157.84l-5.38-.49c.06-.61.11-1.22.18-1.83l5.38.56c-.06.58-.12,1.17-.17,1.76ZM295.99,153.11c-.07-.58-.15-1.17-.24-1.75l5.35-.76c.09.61.17,1.21.25,1.82l-5.36.69ZM43.89,149.09l-5.34-.86c.1-.61.2-1.21.31-1.81l5.32.94c-.1.58-.2,1.16-.29,1.74ZM294.57,144.4c-.11-.58-.23-1.15-.36-1.72l5.29-1.13c.13.6.25,1.2.37,1.8l-5.3,1.05ZM45.6,140.44l-5.26-1.23c.14-.6.28-1.2.43-1.79l5.24,1.31c-.14.57-.28,1.14-.41,1.71ZM292.54,135.83c-.16-.57-.31-1.13-.48-1.7l5.19-1.5c.17.59.34,1.18.5,1.77l-5.21,1.43ZM47.9,131.93l-5.17-1.59c.18-.59.37-1.17.56-1.76l5.14,1.66c-.18.56-.36,1.12-.53,1.69ZM289.91,127.41c-.19-.55-.39-1.11-.59-1.66l5.07-1.86c.21.58.42,1.15.62,1.73l-5.1,1.79ZM50.8,123.59l-5.04-1.95c.22-.57.45-1.15.68-1.72l5.01,2.02c-.22.55-.44,1.09-.65,1.65ZM286.72,119.22c-.23-.54-.47-1.08-.71-1.61l4.94-2.2c.25.56.49,1.11.73,1.67l-4.96,2.14ZM54.27,115.46l-4.89-2.3c.26-.56.53-1.11.8-1.67l4.86,2.37c-.26.53-.51,1.06-.76,1.59ZM282.96,111.26c-.27-.52-.54-1.04-.82-1.56l4.77-2.54c.29.54.57,1.08.85,1.62l-4.8,2.48ZM58.3,107.61l-4.72-2.63c.3-.54.6-1.07.91-1.6l4.68,2.7c-.29.51-.58,1.02-.87,1.54ZM278.65,103.57c-.3-.5-.61-1-.92-1.5l4.58-2.87c.32.52.65,1.04.96,1.56l-4.62,2.8ZM62.87,100.05l-4.53-2.95c.34-.52.68-1.03,1.02-1.54l4.48,3.02c-.33.49-.65.98-.97,1.47ZM273.83,96.21c-.34-.48-.68-.96-1.02-1.43l4.37-3.18c.36.5.72.99,1.07,1.49l-4.42,3.11ZM67.94,92.83l-4.31-3.26c.37-.49.74-.97,1.12-1.46l4.27,3.31c-.36.47-.72.93-1.08,1.4ZM268.51,89.18c-.37-.46-.74-.91-1.12-1.36l4.15-3.47c.39.47.78.94,1.17,1.42l-4.19,3.41ZM73.49,85.98l-4.08-3.55c.4-.46.81-.92,1.22-1.38l4.03,3.6c-.39.44-.78.88-1.17,1.32ZM262.71,82.54c-.4-.43-.8-.86-1.21-1.28l3.9-3.75c.42.44.85.89,1.26,1.34l-3.95,3.69ZM79.5,79.52l-3.82-3.82c.43-.43.87-.86,1.31-1.29l3.77,3.87c-.42.41-.84.83-1.26,1.24ZM256.48,76.3c-.43-.4-.86-.8-1.3-1.2l3.63-4c.45.41.9.83,1.35,1.24l-3.68,3.95ZM85.94,73.49l-3.56-4.07c.46-.4.92-.8,1.39-1.2l3.5,4.12c-.45.38-.89.77-1.34,1.15ZM249.82,70.51c-.46-.37-.91-.74-1.38-1.1l3.35-4.24c.48.38.96.76,1.44,1.15l-3.41,4.19ZM92.77,67.92l-3.27-4.31c.49-.37.98-.74,1.47-1.1l3.21,4.35c-.47.35-.94.7-1.41,1.05ZM242.79,65.19c-.48-.34-.97-.67-1.45-1.01l3.05-4.46c.51.35,1.01.69,1.51,1.05l-3.11,4.42ZM99.97,62.84l-2.97-4.52c.51-.34,1.03-.67,1.54-1l2.9,4.56c-.5.31-.99.63-1.48.95ZM235.4,60.36c-.5-.3-1.01-.61-1.52-.9l2.73-4.66c.53.31,1.06.62,1.58.94l-2.8,4.62ZM107.5,58.27l-2.65-4.71c.53-.3,1.07-.59,1.61-.89l2.58,4.75c-.52.28-1.03.56-1.54.85ZM227.69,56.05c-.52-.27-1.05-.53-1.58-.8l2.4-4.84c.55.27,1.1.55,1.65.83l-2.47,4.81ZM115.32,54.22l-2.32-4.88c.55-.26,1.11-.52,1.66-.77l2.25,4.92c-.53.24-1.06.49-1.59.74ZM219.7,52.29c-.54-.23-1.08-.46-1.63-.68l2.06-5c.57.23,1.14.47,1.7.72l-2.14,4.96ZM123.39,50.74l-1.97-5.04c.57-.22,1.14-.44,1.72-.66l1.9,5.06c-.55.21-1.1.42-1.65.63ZM211.47,49.09c-.56-.19-1.12-.38-1.68-.57l1.71-5.13c.58.19,1.17.39,1.75.59l-1.78,5.1ZM131.71,47.81l-1.62-5.16c.58-.18,1.17-.36,1.76-.54l1.54,5.18c-.56.17-1.13.34-1.69.51ZM203.04,46.48c-.57-.15-1.13-.3-1.7-.45l1.34-5.23c.59.15,1.19.31,1.78.47l-1.42,5.22ZM140.21,45.48l-1.25-5.26c.6-.14,1.19-.28,1.79-.41l1.18,5.27c-.57.13-1.15.26-1.72.4ZM194.46,44.47c-.58-.11-1.15-.22-1.73-.33l.97-5.32c.6.11,1.21.23,1.81.35l-1.05,5.3ZM148.85,43.74l-.88-5.33c.6-.1,1.21-.2,1.82-.29l.81,5.35c-.58.09-1.16.18-1.74.27ZM185.75,43.06c-.58-.07-1.16-.14-1.75-.21l.6-5.37c.61.07,1.22.14,1.83.22l-.68,5.36ZM157.59,42.61l-.51-5.38c.61-.06,1.22-.11,1.83-.16l.43,5.39c-.59.05-1.17.1-1.76.15ZM176.98,42.25c-.58-.03-1.17-.06-1.76-.09l.23-5.4c.61.03,1.23.06,1.84.09l-.31,5.4ZM166.4,42.09l-.14-5.4c.61-.01,1.23-.03,1.84-.03l.06,5.4c-.59,0-1.17.02-1.76.03Z"/>
      <path class="cls-1" d="M14.83,168.01C15.67,83.41,84.72,14.83,169.52,14.83c.53,0,1.05.03,1.58.04V.04c-.53,0-1.05-.04-1.58-.04C76.54,0,.84,75.23,0,168.01h14.83Z"/>
      <path class="cls-2" d="M67.36,69.69l-5.16-5.03c9.86-10.11,21.07-18.78,33.3-25.75,6.76-3.85,13.87-7.2,21.13-9.95l2.55,6.74c-6.91,2.62-13.68,5.81-20.11,9.48-11.65,6.64-22.32,14.89-31.71,24.52Z"/>
      <path class="cls-2" d="M176.03,329.76l-.48-12.6c.57-.02,1.15-.05,1.72-.08l.65,12.6c-.63.03-1.26.06-1.88.08ZM185.4,329.11l-1.24-12.55,1.73-.18,1.37,12.54c-.62.07-1.24.13-1.86.19ZM194.68,327.93l-1.96-12.46c.57-.09,1.14-.18,1.7-.28l2.11,12.43c-.62.1-1.24.21-1.85.3ZM203.91,326.2l-2.71-12.32,1.7-.38,2.83,12.29-1.81.41ZM213.01,323.93l-3.43-12.14,1.67-.48,3.55,12.1c-.6.17-1.19.35-1.79.52ZM221.95,321.13l-4.12-11.92c.55-.19,1.09-.38,1.63-.57l4.25,11.87c-.59.21-1.18.42-1.77.62ZM230.69,317.82l-4.8-11.66c.53-.22,1.05-.44,1.58-.66l4.95,11.6c-.58.25-1.15.49-1.73.73ZM239.24,314l-5.49-11.35c.52-.25,1.03-.5,1.55-.76l5.62,11.29c-.56.28-1.12.55-1.68.82ZM247.54,309.68l-6.15-11.01,1.51-.85,6.26,10.95c-.54.31-1.08.61-1.62.91ZM255.57,304.89l-6.77-10.64c.49-.31.97-.62,1.45-.94l6.89,10.56c-.52.34-1.05.68-1.57,1.01ZM263.32,299.63l-7.38-10.23c.47-.34.93-.68,1.39-1.02l7.5,10.14c-.5.37-1,.74-1.51,1.1ZM270.75,293.94l-7.96-9.78c.45-.36.89-.73,1.33-1.1l8.07,9.69c-.48.4-.96.79-1.45,1.19ZM277.85,287.81l-8.52-9.3,1.27-1.18,8.62,9.21c-.45.43-.91.85-1.37,1.27ZM284.57,281.3l-9.03-8.81c.4-.41.8-.83,1.19-1.24l9.14,8.69c-.43.45-.87.91-1.3,1.35ZM290.91,274.41l-9.51-8.28c.38-.43.75-.87,1.12-1.3l9.63,8.15c-.41.48-.82.96-1.23,1.43ZM296.85,267.14l-10-7.69c.35-.46.7-.92,1.05-1.38l10.08,7.57c-.38.5-.75,1-1.13,1.49ZM302.34,259.55l-10.41-7.12c.32-.47.64-.95.96-1.43l10.51,6.98c-.35.52-.7,1.05-1.05,1.56ZM307.4,251.64l-10.81-6.49c.3-.49.59-.99.88-1.49l10.89,6.36c-.32.54-.64,1.08-.96,1.62ZM311.99,243.44l-11.19-5.82.8-1.55,11.24,5.71c-.28.56-.57,1.11-.85,1.66ZM316.09,235.01l-11.5-5.18c.24-.52.47-1.05.7-1.58l11.57,5.03c-.25.58-.51,1.15-.76,1.73ZM319.69,226.32l-11.79-4.48c.21-.54.41-1.08.61-1.63l11.84,4.35c-.22.59-.43,1.17-.66,1.76ZM322.77,217.44l-12.03-3.78c.17-.55.34-1.1.51-1.66l12.08,3.64c-.18.6-.37,1.2-.55,1.8ZM325.32,208.4l-12.24-3.05c.14-.56.28-1.12.41-1.68l12.27,2.92c-.14.61-.29,1.21-.44,1.82ZM327.33,199.25l-12.39-2.33c.11-.57.21-1.13.31-1.7l12.42,2.2c-.11.61-.22,1.23-.34,1.84ZM328.79,189.99l-12.51-1.61c.07-.57.14-1.14.21-1.71l12.53,1.46c-.07.62-.15,1.25-.23,1.87ZM329.72,180.67l-12.58-.89c.04-.57.08-1.14.11-1.71l12.59.72c-.04.63-.08,1.25-.12,1.88ZM330.09,171.3l-12.61-.15c0-.57.01-1.15.01-1.73h12.61c0,.63,0,1.25-.01,1.87Z"/>
      <path class="cls-1" d="M27.8,243.64c-12.07-22.79-18.71-50.1-18.71-76.91h9.01c0,25.36,6.27,51.18,17.67,72.7l-7.96,4.22Z"/>
      <path class="cls-1" d="M169.65,320.47c-41.29,0-79.87-16.41-108.63-46.2l6.48-6.26c27.05,28.02,63.33,43.45,102.15,43.45,34.21,0,67.28-12.39,93.13-34.88l5.91,6.79c-27.48,23.92-62.66,37.09-99.04,37.09Z"/>
      <path class="cls-1" d="M292.34,257.45l-7.31-5.26c17.44-24.25,26.66-52.86,26.66-82.76h9.01c0,31.79-9.81,62.23-28.36,88.02Z"/>
      <path class="cls-1" d="M324.05,169.43h-1.8c0-23.77-5.34-46.56-15.87-67.73l1.61-.8c10.66,21.42,16.06,44.48,16.06,68.54Z"/>
      <path class="cls-1" d="M224.47,27.01c-17.49-6.75-35.93-10.18-54.82-10.18v-1.8c19.11,0,37.77,3.47,55.46,10.3l-.65,1.68Z"/>
      <path class="cls-1" d="M293.03,107.85c-5.65-11.36-12.86-21.89-21.44-31.31-14.29-15.69-32.25-27.99-51.93-35.59l3.25-8.4c20.97,8.1,40.11,21.22,55.34,37.93,9.14,10.03,16.83,21.26,22.85,33.36l-8.07,4.01Z"/>
    </g>
  </g>
</svg>